<?xml version="1.0" encoding="utf-8"?>
<!-- Generator: Adobe Illustrator 24.0.3, SVG Export Plug-In . SVG Version: 6.00 Build 0)  -->
<svg version="1.1" id="Capa_1" xmlns="http://www.w3.org/2000/svg" xmlns:xlink="http://www.w3.org/1999/xlink" x="0px" y="0px"
	 viewBox="0 0 986.73 89.11" style="enable-background:new 0 0 986.73 89.11;" xml:space="preserve">
<style type="text/css">
	.st0{fill:#5BBCD6;}
	.st1{fill:#FFFFFF;}
</style>
<g>
	<path class="st0" d="M984.22,2.88c-1.67-1.67-3.77-2.51-6.28-2.51H906.4c-2.51,0-4.6,0.84-6.28,2.51
		c-1.67,1.67-2.51,3.77-2.51,6.28v53.55c0,2.51,0.84,4.64,2.51,6.38c1.67,1.74,3.77,2.61,6.28,2.61h17.99v13.39
		c0,1.25,0.42,2.3,1.26,3.14c0.84,0.84,1.88,1.25,3.14,1.25h2.3c1.12,0,2.16-0.42,3.14-1.25l16.53-16.53h27.19
		c2.51,0,4.6-0.87,6.28-2.61c1.67-1.74,2.51-3.87,2.51-6.38V9.16C986.73,6.65,985.89,4.56,984.22,2.88z M974.24,34.5h-7.04v-3.51
		l-23.74,23.74l-12.54-12.69L916.3,56.67l-6.2-6.2l20.84-20.66l12.54,12.54l17.51-17.4h-3.34v-7.19h16.59V34.5z"/>
	<g>
		<path class="st1" d="M16.18,88.52H0V1.87h16.18V88.52z"/>
		<path class="st1" d="M46.14,34.59c1.24-1.24,2.55-2.39,3.93-3.45c1.37-1.06,2.83-1.96,4.37-2.7c1.54-0.74,3.19-1.32,4.95-1.74
			c1.75-0.42,3.68-0.63,5.75-0.63c3.35,0,6.33,0.57,8.93,1.71c2.6,1.14,4.77,2.74,6.51,4.79c1.74,2.06,3.06,4.52,3.95,7.37
			c0.9,2.86,1.35,6,1.35,9.44v39.13h-14.8V49.39c0-3.75-0.86-6.66-2.58-8.72c-1.71-2.06-4.33-3.09-7.85-3.09
			c-2.55,0-4.96,0.58-7.19,1.74c-2.24,1.16-4.36,2.74-6.35,4.73v44.46H32.3V27.04h9.05c1.92,0,3.18,0.9,3.78,2.7L46.14,34.59z"/>
		<path class="st1" d="M103.13,88.52V38.18l-5.33-0.84c-1.16-0.24-2.09-0.65-2.79-1.23c-0.7-0.58-1.05-1.41-1.05-2.49v-6.05h9.17
			v-4.55c0-3.51,0.53-6.67,1.59-9.47c1.06-2.79,2.57-5.17,4.55-7.13c1.98-1.96,4.39-3.45,7.22-4.49c2.83-1.04,6.03-1.56,9.58-1.56
			c2.84,0,5.48,0.38,7.91,1.14l-0.3,7.43c-0.04,0.56-0.2,1.01-0.48,1.35c-0.28,0.34-0.65,0.6-1.11,0.78
			c-0.46,0.18-0.99,0.3-1.59,0.36c-0.6,0.06-1.24,0.09-1.92,0.09c-1.76,0-3.33,0.19-4.71,0.57c-1.37,0.38-2.55,1.04-3.51,1.98
			s-1.68,2.18-2.18,3.72c-0.5,1.54-0.75,3.45-0.75,5.72v4.08h16v10.55h-15.52v50.4H103.13z"/>
		<path class="st1" d="M167.37,26.08c4.55,0,8.7,0.74,12.43,2.22c3.74,1.48,6.93,3.58,9.59,6.29c2.66,2.72,4.7,6.03,6.14,9.95
			c1.44,3.92,2.16,8.29,2.16,13.13c0,4.87-0.72,9.27-2.16,13.18c-1.44,3.91-3.48,7.25-6.14,10.01c-2.65,2.75-5.85,4.87-9.59,6.35
			c-3.73,1.48-7.88,2.22-12.43,2.22c-4.6,0-8.77-0.74-12.53-2.22c-3.76-1.48-6.96-3.6-9.62-6.35c-2.65-2.76-4.71-6.09-6.17-10.01
			c-1.46-3.91-2.19-8.31-2.19-13.18c0-4.84,0.73-9.21,2.19-13.13c1.46-3.91,3.52-7.23,6.17-9.95c2.66-2.71,5.86-4.81,9.62-6.29
			C158.6,26.82,162.78,26.08,167.37,26.08z M167.37,78.03c5.11,0,8.9-1.71,11.35-5.15c2.46-3.44,3.69-8.47,3.69-15.1
			s-1.23-11.68-3.69-15.16s-6.24-5.21-11.35-5.21c-5.19,0-9.04,1.75-11.54,5.24c-2.5,3.5-3.74,8.54-3.74,15.13
			c0,6.59,1.25,11.62,3.74,15.07C158.33,76.31,162.18,78.03,167.37,78.03z"/>
	</g>
	<g>
		<path class="st0" d="M298.01,3.73v84.79h-5.33V16.25c0-1.04,0.06-2.14,0.18-3.3l-33.37,59.27c-0.56,1.04-1.36,1.56-2.4,1.56h-0.96
			c-1.03,0-1.83-0.52-2.4-1.56l-34.28-59.39c0.12,1.2,0.18,2.34,0.18,3.42v72.27h-5.4V3.73h4.26c0.56,0,1,0.06,1.32,0.18
			c0.32,0.12,0.64,0.44,0.96,0.96l34.22,58.97c0.6,1.12,1.12,2.32,1.56,3.6c0.24-0.64,0.5-1.27,0.78-1.89
			c0.28-0.62,0.57-1.21,0.9-1.77l33.26-58.91c0.32-0.52,0.65-0.84,0.99-0.96c0.33-0.12,0.79-0.18,1.34-0.18H298.01z"/>
		<path class="st0" d="M373.99,83.43l-0.12,5.09h-50.82V3.73h50.82v5.09h-44.65V43.1h37.15v4.97h-37.15v35.35H373.99z"/>
		<path class="st0" d="M451.05,88.52h-5.28c-0.68,0-1.25-0.11-1.71-0.33s-0.89-0.63-1.29-1.23l-27.21-34.4
			c-0.32-0.44-0.65-0.82-0.99-1.14c-0.33-0.32-0.72-0.57-1.13-0.75c-0.42-0.18-0.92-0.31-1.5-0.39c-0.58-0.08-1.29-0.12-2.12-0.12
			h-11.09v38.35h-6.17V3.73h21.69c9.75,0,17.05,1.89,21.91,5.66c4.85,3.78,7.28,9.32,7.28,16.63c0,3.23-0.55,6.19-1.68,8.87
			c-1.12,2.68-2.72,5.02-4.82,7.04s-4.63,3.67-7.61,4.95c-2.98,1.28-6.32,2.14-10.04,2.58c0.96,0.6,1.82,1.4,2.57,2.4L451.05,88.52z
			 M413.42,45.61c3.76,0,7.12-0.45,10.1-1.35c2.98-0.9,5.49-2.19,7.55-3.87c2.06-1.68,3.62-3.69,4.7-6.05
			c1.08-2.35,1.61-5.01,1.61-7.97c0-6.03-1.97-10.51-5.9-13.42c-3.93-2.92-9.68-4.38-17.23-4.38h-15.52v37.03H413.42z"/>
		<path class="st0" d="M526.08,74.26c0.4,0,0.74,0.14,1.02,0.42l2.4,2.58c-1.75,1.88-3.66,3.57-5.72,5.07
			c-2.06,1.5-4.32,2.78-6.78,3.83c-2.45,1.06-5.15,1.88-8.09,2.46c-2.93,0.58-6.16,0.87-9.68,0.87c-5.87,0-11.25-1.03-16.15-3.09
			c-4.89-2.06-9.1-4.97-12.61-8.75c-3.51-3.78-6.24-8.34-8.18-13.69c-1.94-5.35-2.91-11.31-2.91-17.86c0-6.43,1-12.31,2.99-17.62
			c2-5.31,4.8-9.88,8.39-13.69c3.59-3.81,7.91-6.77,12.94-8.87c5.04-2.1,10.58-3.15,16.66-3.15c5.79,0,10.93,0.9,15.4,2.7
			c4.47,1.8,8.55,4.33,12.22,7.61l-1.86,2.7c-0.32,0.48-0.82,0.72-1.5,0.72c-0.48,0-1.25-0.44-2.33-1.32
			c-1.08-0.88-2.58-1.85-4.49-2.91s-4.31-2.03-7.16-2.91s-6.29-1.32-10.28-1.32c-5.11,0-9.8,0.88-14.05,2.64s-7.91,4.27-10.97,7.55
			c-3.06,3.28-5.44,7.27-7.16,11.99c-1.71,4.71-2.57,10-2.57,15.88c0,5.99,0.86,11.34,2.6,16.06c1.74,4.72,4.12,8.7,7.16,11.96
			c3.03,3.26,6.62,5.75,10.76,7.49c4.14,1.74,8.6,2.61,13.4,2.61c3.03,0,5.74-0.2,8.12-0.6c2.38-0.4,4.56-1,6.56-1.8
			c2-0.8,3.86-1.78,5.57-2.93c1.72-1.16,3.42-2.52,5.09-4.08c0.2-0.16,0.4-0.29,0.61-0.39C525.68,74.31,525.88,74.26,526.08,74.26z"
			/>
		<path class="st0" d="M610.39,88.52h-4.73c-0.56,0-1.02-0.15-1.38-0.45c-0.36-0.3-0.64-0.69-0.84-1.17l-9.95-24.63h-41.65
			L541.9,86.9c-0.16,0.44-0.44,0.82-0.84,1.14c-0.4,0.32-0.88,0.48-1.44,0.48h-4.68l34.7-84.79h6.05L610.39,88.52z M591.64,57.72
			l-17.26-42.85c-0.6-1.4-1.18-3.08-1.74-5.03c-0.24,0.96-0.5,1.87-0.78,2.73c-0.28,0.86-0.58,1.65-0.9,2.37l-17.25,42.79H591.64z"
			/>
		<path class="st0" d="M695.9,46.1c0,6.55-0.98,12.44-2.94,17.68c-1.95,5.23-4.72,9.69-8.26,13.36c-3.56,3.68-7.82,6.49-12.8,8.45
			c-4.97,1.96-10.46,2.93-16.45,2.93h-30.99V3.73h30.99c5.99,0,11.47,0.98,16.45,2.93c4.97,1.96,9.24,4.78,12.8,8.45
			c3.55,3.68,6.31,8.13,8.26,13.36C694.93,33.71,695.9,39.58,695.9,46.1z M689.55,46.1c0-5.91-0.81-11.19-2.45-15.82
			c-1.64-4.63-3.96-8.55-6.95-11.74s-6.59-5.63-10.79-7.31c-4.19-1.68-8.83-2.52-13.9-2.52h-24.81v74.85h24.81
			c5.07,0,9.71-0.84,13.9-2.52c4.2-1.68,7.79-4.11,10.79-7.31s5.31-7.11,6.95-11.75C688.74,57.34,689.55,52.05,689.55,46.1z"/>
		<path class="st0" d="M790.88,46.1c0,6.55-0.98,12.49-2.94,17.83c-1.95,5.33-4.71,9.89-8.26,13.66c-3.56,3.78-7.82,6.69-12.8,8.75
			c-4.97,2.06-10.45,3.08-16.45,3.08s-11.47-1.03-16.42-3.08c-4.95-2.06-9.2-4.97-12.76-8.75s-6.32-8.33-8.27-13.66
			c-1.96-5.33-2.94-11.28-2.94-17.83c0-6.51,0.98-12.44,2.94-17.77c1.95-5.33,4.72-9.89,8.27-13.66s7.81-6.7,12.76-8.78
			c4.96-2.08,10.43-3.12,16.42-3.12s11.47,1.03,16.45,3.09c4.97,2.06,9.24,4.98,12.8,8.78c3.56,3.8,6.31,8.36,8.26,13.69
			C789.91,33.66,790.88,39.58,790.88,46.1z M784.54,46.1c0-5.91-0.82-11.23-2.46-15.94c-1.64-4.71-3.95-8.71-6.95-11.98
			c-2.99-3.28-6.59-5.78-10.79-7.52c-4.19-1.74-8.83-2.61-13.9-2.61c-5.04,0-9.65,0.87-13.84,2.61c-4.19,1.74-7.8,4.25-10.82,7.52
			c-3.01,3.28-5.35,7.27-7.01,11.98c-1.66,4.72-2.48,10.03-2.48,15.94c0,5.95,0.83,11.28,2.48,15.97s4,8.68,7.01,11.96
			c3.02,3.28,6.63,5.77,10.82,7.49c4.2,1.72,8.81,2.58,13.84,2.58c5.07,0,9.71-0.86,13.9-2.58c4.2-1.72,7.79-4.21,10.79-7.49
			c3-3.28,5.31-7.26,6.95-11.96S784.54,52.05,784.54,46.1z"/>
		<path class="st0" d="M851.59,14.03c-0.36,0.68-0.88,1.02-1.56,1.02c-0.52,0-1.19-0.37-2-1.11c-0.82-0.74-1.93-1.56-3.33-2.46
			c-1.4-0.9-3.15-1.73-5.25-2.48c-2.09-0.76-4.68-1.14-7.76-1.14s-5.78,0.44-8.12,1.32c-2.33,0.88-4.29,2.08-5.87,3.59
			c-1.58,1.52-2.78,3.28-3.6,5.27c-0.82,2-1.22,4.1-1.22,6.29c0,2.88,0.61,5.25,1.83,7.13c1.22,1.88,2.82,3.47,4.82,4.79
			c2,1.32,4.26,2.43,6.8,3.33c2.53,0.9,5.14,1.79,7.82,2.67c2.68,0.88,5.28,1.85,7.82,2.91c2.53,1.06,4.8,2.39,6.8,3.98
			c2,1.6,3.61,3.57,4.83,5.9c1.22,2.34,1.83,5.24,1.83,8.72c0,3.56-0.61,6.9-1.83,10.04c-1.22,3.14-2.99,5.86-5.31,8.18
			c-2.31,2.32-5.15,4.15-8.5,5.48c-3.36,1.34-7.19,2.01-11.51,2.01c-5.59,0-10.4-0.99-14.44-2.97c-4.03-1.98-7.57-4.68-10.61-8.12
			l1.68-2.64c0.48-0.6,1.04-0.9,1.68-0.9c0.35,0,0.81,0.24,1.37,0.72c0.56,0.48,1.24,1.07,2.04,1.77c0.8,0.7,1.76,1.46,2.88,2.28
			c1.12,0.82,2.41,1.58,3.89,2.28c1.48,0.7,3.18,1.29,5.09,1.77c1.92,0.48,4.1,0.72,6.54,0.72c3.35,0,6.35-0.51,8.98-1.53
			c2.64-1.02,4.87-2.41,6.68-4.16c1.82-1.76,3.21-3.85,4.17-6.26s1.44-5,1.44-7.76c0-3-0.61-5.46-1.83-7.4s-2.82-3.56-4.82-4.85
			c-2-1.3-4.27-2.39-6.8-3.27c-2.53-0.88-5.14-1.74-7.82-2.58c-2.68-0.84-5.29-1.78-7.82-2.82c-2.53-1.04-4.8-2.37-6.8-3.98
			c-2-1.62-3.61-3.63-4.82-6.05c-1.22-2.42-1.83-5.44-1.83-9.08c0-2.84,0.54-5.57,1.62-8.21c1.08-2.64,2.65-4.96,4.73-6.98
			c2.07-2.02,4.64-3.63,7.7-4.85c3.06-1.22,6.54-1.83,10.46-1.83c4.39,0,8.34,0.7,11.83,2.1c3.5,1.4,6.68,3.54,9.56,6.41
			L851.59,14.03z"/>
	</g>
</g>
</svg>
