<?xml version="1.0" encoding="utf-8"?>
<!-- Generator: Adobe Illustrator 24.0.3, SVG Export Plug-In . SVG Version: 6.00 Build 0)  -->
<svg version="1.1" id="Capa_1" xmlns="http://www.w3.org/2000/svg" xmlns:xlink="http://www.w3.org/1999/xlink" x="0px" y="0px"
	 viewBox="0 0 800 385.4" style="enable-background:new 0 0 800 385.4;" xml:space="preserve">
<g>
	<path style="fill:#5ABBD6" d="M512.3,6.8C507.8,2.2,501.8,0,495.8,0H304.2c-6.8,0-12,2.2-16.5,6.8s-6.8,9.8-6.8,16.5V166
		c0,6.8,2.2,12,6.8,17.3s9.8,6.8,16.5,6.8h48.1v36.1c0,3.8,1.5,6,3.8,8.3c2.2,2.2,5.3,3.8,8.3,3.8h6c3,0,6-0.8,8.3-3.8l44.3-44.3
		h72.9c6.8,0,12-2.2,16.5-6.8c4.5-4.5,6.8-10.5,6.8-17.3V23.3C519.1,16.5,516.8,11.3,512.3,6.8z"/>
	<polygon style="fill:#FFFFFF" points="485.3,90.9 466.5,90.9 466.5,81.9 403.4,145 369.6,111.2 330.5,150.2 314,133.7 369.6,78.9
		403.4,111.9 450,65.3 440.9,65.3 440.9,46.6 485.3,46.6 	"/>
</g>
<g style="enable-background:new">
	<path style="fill:#FFFFFF" d="M30,237.4H11.3V136.7h18.8C30.1,136.7,30.1,237.4,30,237.4z"/>
	<path style="fill:#FFFFFF" d="M64.6,175c1.5-1.5,3-3,4.5-3.8c1.5-1.5,3-2.2,5.3-3c1.5-0.8,3.8-1.5,6-2.2s4.5-0.8,6.8-0.8
		c3.8,0,7.5,0.8,10.5,2.2s5.3,3,7.5,5.3c2.2,2.2,3.8,5.3,4.5,8.3s1.5,6.8,1.5,11.3v45.8H93.9v-45.8c0-4.5-0.8-7.5-3-10.5
		c-2.2-2.2-5.3-3.8-9-3.8c-3,0-6,0.8-8.3,2.2s-5.3,3-7.5,5.3v51.8H48.8V166h10.5c2.2,0,3.8,0.8,4.5,3L64.6,175z"/>
	<path style="fill:#FFFFFF" d="M131.5,237.4v-58.6l-6-0.8c-1.5,0-2.2-0.8-3-1.5s-1.5-1.5-1.5-3v-6.8h10.5v-5.3c0-3.8,0.8-7.5,1.5-11.3
		c1.5-3,3-6,5.3-8.3c2.2-2.2,5.3-3.8,8.3-5.3c3.8-1.5,7.5-1.5,11.3-1.5c3,0,6,0.8,9,1.5v9c0,0.8,0,1.5-0.8,1.5
		c0,0.8-0.8,0.8-1.5,0.8s-1.5,0-1.5,0.8c-0.8,0-1.5,0-2.2,0c-2.2,0-3.8,0-5.3,0.8s-3,1.5-3.8,2.2c-0.8,0.8-2.2,2.2-2.2,4.5
		c-0.8,1.5-0.8,3.8-0.8,6.8v4.5h18.8v12h-18v58.6h-18L131.5,237.4L131.5,237.4z"/>
	<path style="fill:#FFFFFF" d="M205.8,164.5c5.3,0,9.8,0.8,14.3,2.2c4.5,1.5,8.3,4.5,11.3,7.5c3,3,5.3,6.8,7.5,11.3c1.5,4.5,2.2,9.8,2.2,15
		c0,6-0.8,10.5-2.2,15c-1.5,4.5-3.8,8.3-7.5,12c-3,3-6.8,6-11.3,7.5c-4.5,1.5-9,2.2-14.3,2.2c-5.3,0-10.5-0.8-14.3-2.2
		c-4.5-1.5-8.3-4.5-11.3-7.5c-3-3-5.3-6.8-7.5-12c-1.5-4.5-2.2-9.8-2.2-15s0.8-10.5,2.2-15c1.5-4.5,3.8-8.3,7.5-11.3
		c3-3,6.8-5.3,11.3-7.5C196.1,166,200.6,164.5,205.8,164.5z M205.8,225.4c6,0,10.5-2.2,13.5-6s4.5-9.8,4.5-17.3s-1.5-13.5-4.5-17.3
		c-3-3.8-7.5-6-13.5-6s-10.5,2.2-13.5,6s-4.5,9.8-4.5,17.3s1.5,13.5,4.5,17.3S199.8,225.4,205.8,225.4z"/>
</g>
<g class="st2">
	<path style="fill:#5ABBD6" d="M111.9,254.6V353h-6v-83.4c0-1.5,0-2.2,0-3.8l-38.3,68.4c-0.8,1.5-1.5,1.5-3,1.5h-1.5c-1.5,0-2.2-0.8-3-1.5
		l-39.8-69.1c0,1.5,0,3,0,3.8V353h-6v-98.4h5.3c0.8,0,1.5,0,1.5,0s0.8,0.8,1.5,1.5l39.8,68.4c0.8,1.5,1.5,3,1.5,4.5
		c0-0.8,0.8-1.5,0.8-2.2s0.8-1.5,0.8-2.2l39.1-68.4c0.8-0.8,0.8-0.8,1.5-0.8s0.8,0,1.5,0L111.9,254.6L111.9,254.6z"/>
	<path style="fill:#5ABBD6" d="M200.6,347.8v6h-59.3v-99.1h59.3v6h-51.8v39.8h43.6v6h-43.6v41.3L200.6,347.8L200.6,347.8z"/>
	<path style="fill:#5ABBD6" d="M290,353.8h-6c-0.8,0-1.5,0-2.2-0.8s-0.8-0.8-1.5-1.5l-31.6-39.8c0-0.8-0.8-0.8-1.5-1.5s-0.8-0.8-1.5-0.8
		s-0.8,0-1.5-0.8c-0.8,0-1.5,0-2.2,0h-12.8v44.3h-7.5v-98.4h25.5c11.3,0,19.5,2.2,25.5,6.8s8.3,10.5,8.3,19.5
		c0,3.8-0.8,7.5-2.2,10.5s-3,6-5.3,8.3s-5.3,4.5-9,6c-3.8,1.5-7.5,2.2-12,3c0.8,0.8,2.2,1.5,3,3L290,353.8z M246.4,303.5
		c4.5,0,8.3-0.8,12-1.5c3.8-0.8,6.8-2.2,9-4.5c2.2-2.2,4.5-4.5,5.3-6.8c1.5-3,2.2-6,2.2-9c0-6.8-2.2-12-6.8-15.8
		c-4.5-3.8-11.3-5.3-20.3-5.3h-18v42.8L246.4,303.5L246.4,303.5z"/>
	<path style="fill:#5ABBD6" d="M377.1,336.5c0.8,0,0.8,0,1.5,0.8l3,3c-2.2,2.2-4.5,4.5-6.8,6s-5.3,3-7.5,4.5c-3,1.5-6,2.2-9.8,3
		c-3.8,0.8-7.5,0.8-11.3,0.8c-6.8,0-12.8-1.5-18.8-3.8c-6-2.2-10.5-6-15-10.5c-3.8-4.5-7.5-9.8-9.8-15.8c-2.2-6-3.8-13.5-3.8-21
		s1.5-14.3,3.8-20.3c2.2-6,5.3-11.3,9.8-15.8c4.5-4.5,9-7.5,15-10.5c6-2.2,12-3.8,19.5-3.8c6.8,0,12.8,0.8,18,3
		c5.3,2.2,9.8,5.3,14.3,9l-2.2,3c0,0.8-0.8,0.8-1.5,0.8s-1.5-0.8-3-1.5s-3-2.2-5.3-3.8c-2.2-1.5-5.3-2.2-8.3-3.8
		c-3-0.8-7.5-1.5-12-1.5c-6,0-11.3,0.8-16.5,3s-9,5.3-12.8,9c-3.8,3.8-6,8.3-8.3,14.3c-2.2,5.3-3,11.3-3,18.8c0,6.8,0.8,13.5,3,18.8
		s4.5,9.8,8.3,14.3c3.8,3.8,7.5,6.8,12.8,9c5.3,2.2,9.8,3,15.8,3c3.8,0,6.8,0,9.8-0.8c3-0.8,5.3-1.5,7.5-2.2s4.5-2.2,6.8-3.8
		c2.2-1.5,3.8-3,6-4.5C376.3,337.3,376.3,337.3,377.1,336.5C377.1,337.3,377.1,336.5,377.1,336.5z"/>
	<path style="fill:#5ABBD6" d="M475.5,353.8h-5.3c-0.8,0-1.5,0-1.5-0.8c-0.8,0-0.8-0.8-0.8-1.5L456,323h-48.8l-11.3,28.5
		c0,0.8-0.8,0.8-0.8,1.5s-0.8,0.8-1.5,0.8h-5.3l39.8-99.1h6.8L475.5,353.8z M453.7,317.8l-20.3-49.6c-0.8-1.5-1.5-3.8-2.2-6
		c0,0.8-0.8,2.2-0.8,3s-0.8,2.2-0.8,3l-20.3,49.6C409.4,317.8,453.7,317.8,453.7,317.8z"/>
	<path style="fill:#5ABBD6" d="M575.4,304.2c0,7.5-1.5,14.3-3.8,20.3c-2.2,6-5.3,11.3-9.8,15.8c-4.5,4.5-9,7.5-15,9.8s-12,3.8-18.8,3.8H492
		v-99.1h36.1c6.8,0,13.5,1.5,18.8,3.8c6,2.2,10.5,5.3,15,9.8c3.8,4.5,7.5,9.8,9.8,15.8C573.9,290,575.4,296.7,575.4,304.2z
		 M567.9,304.2c0-6.8-0.8-12.8-3-18.8s-4.5-9.8-8.3-13.5c-3.8-3.8-7.5-6.8-12.8-8.3s-10.5-3-16.5-3h-28.5v87.1h28.5
		c6,0,11.3-0.8,16.5-3s9-4.5,12.8-8.3s6-8.3,8.3-13.5C567.1,317.8,567.9,311,567.9,304.2z"/>
	<path style="fill:#5ABBD6" d="M685.8,304.2c0,7.5-1.5,14.3-3.8,21c-2.2,6-5.3,11.3-9.8,15.8c-4.5,4.5-9,7.5-15,10.5c-6,2.2-12,3.8-18.8,3.8
		s-13.5-1.5-18.8-3.8c-6-2.2-10.5-6-15-10.5c-4.5-4.5-7.5-9.8-9.8-15.8c-2.2-6-3.8-12.8-3.8-21c0-7.5,1.5-14.3,3.8-21
		c2.2-6,5.3-11.3,9.8-15.8c4.5-4.5,9-7.5,15-10.5c6-2.2,12-3.8,18.8-3.8s13.5,1.5,18.8,3.8c6,2.2,10.5,6,15,10.5
		c4.5,4.5,7.5,9.8,9.8,15.8C684.3,290,685.8,296.7,685.8,304.2z M678.3,304.2c0-6.8-0.8-12.8-3-18.8c-2.2-5.3-4.5-9.8-8.3-14.3
		c-3.8-3.8-7.5-6.8-12.8-9c-4.5-2.2-10.5-3-16.5-3s-11.3,0.8-15.8,3c-4.5,2.2-9,5.3-12.8,9c-3.8,3.8-6,8.3-8.3,14.3
		c-2.2,5.3-3,12-3,18.8s0.8,12.8,3,18.8c2.2,5.3,4.5,9.8,8.3,14.3c3.8,3.8,7.5,6.8,12.8,9s10.5,3,15.8,3c6,0,11.3-0.8,16.5-3
		s9-5.3,12.8-9s6-8.3,8.3-14.3C677.6,317,678.3,311,678.3,304.2z"/>
	<path style="fill:#5ABBD6" d="M756.4,266.7c-0.8,0.8-0.8,1.5-1.5,1.5s-1.5-0.8-2.2-1.5s-2.2-1.5-3.8-3c-1.5-0.8-3.8-2.2-6-3s-5.3-1.5-9-1.5
		c-3.8,0-6.8,0.8-9.8,1.5c-3,0.8-5.3,2.2-6.8,4.5c-1.5,1.5-3,3.8-4.5,6c-0.8,2.2-1.5,4.5-1.5,7.5s0.8,6,2.2,8.3s3,3.8,5.3,5.3
		c2.2,1.5,5.3,3,8.3,3.8s6,2.2,9,3s6,2.2,9,3.8c3,1.5,5.3,3,8.3,4.5c2.2,1.5,4.5,4.5,5.3,6.8c1.5,3,2.2,6,2.2,10.5
		c0,4.5-0.8,8.3-2.2,12c-1.5,3.8-3.8,6.8-6,9.8c-3,3-6,4.5-9.8,6s-8.3,2.2-13.5,2.2c-6.8,0-12-1.5-16.5-3.8c-4.5-2.2-9-5.3-12-9.8
		l2.2-3c0.8-0.8,1.5-0.8,2.2-0.8s0.8,0,1.5,0.8s1.5,1.5,2.2,2.2s2.2,1.5,3,3c1.5,0.8,3,1.5,4.5,3c1.5,0.8,3.8,1.5,6,2.2
		s4.5,0.8,7.5,0.8c3.8,0,7.5-0.8,10.5-1.5c3-1.5,6-3,7.5-4.5c2.2-2.2,3.8-4.5,4.5-7.5s1.5-6,1.5-9c0-3.8-0.8-6-2.2-8.3s-3-4.5-5.3-6
		s-5.3-3-8.3-3.8s-6-2.2-9-3s-6-2.2-9-3c-3-1.5-5.3-3-8.3-4.5c-2.2-1.5-4.5-4.5-5.3-6.8c-1.5-3-2.2-6-2.2-10.5c0-3,0.8-6.8,2.2-9.8
		s3-6,5.3-8.3s5.3-4.5,9-6c3.8-1.5,7.5-2.2,12-2.2c5.3,0,9.8,0.8,13.5,2.2c3.8,1.5,7.5,3.8,11.3,7.5L756.4,266.7z"/>
</g>
</svg>
